<svg width="23" height="24" viewBox="0 0 23 24" fill="none" xmlns="http://www.w3.org/2000/svg">
<path fill-rule="evenodd" clip-rule="evenodd" d="M0.5 19C0.5 23.1175 2.4415 24 11.5 24C20.5585 24 22.5 23.1175 22.5 19C22.5 14.8825 20.5585 14 11.5 14C2.4415 14 0.5 14.8825 0.5 19ZM2.5 19C2.5 19.9093 2.61431 20.3794 2.74164 20.6398C2.83196 20.8246 2.97936 21.0182 3.43067 21.2233C3.94734 21.4582 4.78709 21.6691 6.16071 21.8079C7.51516 21.9447 9.25517 22 11.5 22C13.7448 22 15.4848 21.9447 16.8393 21.8079C18.2129 21.6691 19.0527 21.4582 19.5693 21.2233C20.0206 21.0182 20.168 20.8246 20.2584 20.6398C20.3857 20.3794 20.5 19.9093 20.5 19C20.5 18.0907 20.3857 17.6206 20.2584 17.3602C20.168 17.1754 20.0206 16.9818 19.5693 16.7767C19.0527 16.5418 18.2129 16.3309 16.8393 16.1921C15.4848 16.0553 13.7448 16 11.5 16C9.25517 16 7.51516 16.0553 6.16071 16.1921C4.78709 16.3309 3.94734 16.5418 3.43067 16.7767C2.97936 16.9818 2.83196 17.1754 2.74164 17.3602C2.61431 17.6206 2.5 18.0907 2.5 19Z" fill="#E9EAEC"/>
<path fill-rule="evenodd" clip-rule="evenodd" d="M5.5 6C5.5 9.31371 8.18629 12 11.5 12C14.8137 12 17.5 9.31371 17.5 6C17.5 2.68629 14.8137 0 11.5 0C8.18629 0 5.5 2.68629 5.5 6ZM7.5 6C7.5 8.20914 9.29086 10 11.5 10C13.7091 10 15.5 8.20914 15.5 6C15.5 3.79086 13.7091 2 11.5 2C9.29086 2 7.5 3.79086 7.5 6Z" fill="#E9EAEC"/>
</svg>
