<svg width="24" height="25" viewBox="0 0 24 25" fill="none" xmlns="http://www.w3.org/2000/svg">
<path d="M14.5299 10.434L9.46992 15.494C8.81992 14.844 8.41992 13.954 8.41992 12.964C8.41992 10.984 10.0199 9.38403 11.9999 9.38403C12.9899 9.38403 13.8799 9.78403 14.5299 10.434Z" stroke="#E9EAEC" stroke-width="1.5" stroke-linecap="round" stroke-linejoin="round"/>
<path d="M17.8198 6.73397C16.0698 5.41397 14.0698 4.69397 11.9998 4.69397C8.46984 4.69397 5.17984 6.77397 2.88984 10.374C1.98984 11.784 1.98984 14.154 2.88984 15.564C3.67984 16.804 4.59984 17.874 5.59984 18.734" stroke="#E9EAEC" stroke-width="1.5" stroke-linecap="round" stroke-linejoin="round"/>
<path d="M8.41992 20.494C9.55992 20.974 10.7699 21.234 11.9999 21.234C15.5299 21.234 18.8199 19.154 21.1099 15.554C22.0099 14.144 22.0099 11.774 21.1099 10.364C20.7799 9.84404 20.4199 9.35404 20.0499 8.89404" stroke="#E9EAEC" stroke-width="1.5" stroke-linecap="round" stroke-linejoin="round"/>
<path d="M15.5099 13.6639C15.2499 15.0739 14.0999 16.2239 12.6899 16.4839" stroke="#E9EAEC" stroke-width="1.5" stroke-linecap="round" stroke-linejoin="round"/>
<path d="M9.47 15.494L2 22.964" stroke="#E9EAEC" stroke-width="1.5" stroke-linecap="round" stroke-linejoin="round"/>
<path d="M21.9998 2.96399L14.5298 10.434" stroke="#E9EAEC" stroke-width="1.5" stroke-linecap="round" stroke-linejoin="round"/>
</svg>
