<svg width="24" height="25" viewBox="0 0 24 25" fill="none" xmlns="http://www.w3.org/2000/svg">
<path d="M15.5799 12.964C15.5799 14.944 13.9799 16.544 11.9999 16.544C10.0199 16.544 8.41992 14.944 8.41992 12.964C8.41992 10.984 10.0199 9.38403 11.9999 9.38403C13.9799 9.38403 15.5799 10.984 15.5799 12.964Z" stroke="#E9EAEC" stroke-width="1.5" stroke-linecap="round" stroke-linejoin="round"/>
<path d="M11.9998 21.234C15.5298 21.234 18.8198 19.154 21.1098 15.554C22.0098 14.144 22.0098 11.774 21.1098 10.364C18.8198 6.76396 15.5298 4.68396 11.9998 4.68396C8.46984 4.68396 5.17984 6.76396 2.88984 10.364C1.98984 11.774 1.98984 14.144 2.88984 15.554C5.17984 19.154 8.46984 21.234 11.9998 21.234Z" stroke="#E9EAEC" stroke-width="1.5" stroke-linecap="round" stroke-linejoin="round"/>
</svg>
