<svg width="22" height="24" viewBox="0 0 22 24" fill="none" xmlns="http://www.w3.org/2000/svg">
<path d="M7.92217 19.8384C7.92217 20.7344 7.93217 21.5914 7.93817 22.1234C7.93929 22.252 7.98057 22.377 8.05623 22.481C8.13189 22.585 8.23815 22.6627 8.36017 22.7034C10.4382 23.3894 12.6772 23.4214 14.7742 22.7944L15.0662 22.7074C15.2037 22.6662 15.3243 22.582 15.4104 22.4672C15.4964 22.3523 15.5433 22.2129 15.5442 22.0694C15.5492 21.3364 15.5612 20.0524 15.5612 18.5394C15.5612 17.1674 15.0842 16.2894 14.5302 15.8324C17.9292 15.4664 21.5002 14.2224 21.5002 8.60536C21.5002 6.99536 20.9082 5.69536 19.9342 4.67136C20.0872 4.30536 20.6222 2.80536 19.7812 0.793365C19.7812 0.793365 18.5012 0.390365 15.5802 2.29336C14.3339 1.96255 13.0496 1.79647 11.7602 1.79936C10.4622 1.79936 9.16317 1.96436 7.94117 2.29336C5.02017 0.407365 3.74017 0.793365 3.74017 0.793365C2.90017 2.80536 3.43417 4.30536 3.58717 4.67136C2.56719 5.72513 2.00441 7.13891 2.02117 8.60536C2.02117 14.2034 5.57317 15.4654 8.97217 15.8324C8.53317 16.1984 8.13217 16.8384 7.99917 17.7894C7.12017 18.1734 4.92417 18.7954 3.54917 16.5824C3.26317 16.1424 2.40317 15.0634 1.20017 15.0824C-0.079834 15.1004 0.684166 15.7774 1.22017 16.0524C1.86817 16.3994 2.61317 17.6984 2.78517 18.1194C3.09117 18.9424 4.08417 20.5154 7.92217 19.8394" fill="black"/>
</svg>
