<svg width="20" height="19" viewBox="0 0 20 19" fill="none" xmlns="http://www.w3.org/2000/svg">
<path fill-rule="evenodd" clip-rule="evenodd" d="M14.8664 0.593018C15.354 0.592911 15.8248 0.770907 16.1903 1.09354C16.5558 1.41617 16.7909 1.86122 16.8514 2.34502L17.0074 3.59302H17.6754C18.0143 3.59292 18.3491 3.66807 18.6555 3.81303C18.9618 3.95799 19.2322 4.16915 19.4471 4.43128C19.662 4.69341 19.816 4.99997 19.898 5.32884C19.98 5.65771 19.988 6.00068 19.9214 6.33302L19.7204 7.33802C19.5705 8.08688 19.212 8.7781 18.6861 9.33192C18.1602 9.88574 17.4885 10.2796 16.7484 10.468C16.2405 11.5476 15.4718 12.4838 14.5116 13.1919C13.5513 13.9 12.4299 14.3578 11.2484 14.524V16.593H14.2484C14.5136 16.593 14.768 16.6984 14.9555 16.8859C15.143 17.0734 15.2484 17.3278 15.2484 17.593C15.2484 17.8582 15.143 18.1126 14.9555 18.3001C14.768 18.4877 14.5136 18.593 14.2484 18.593H6.2494C5.98418 18.593 5.72983 18.4877 5.54229 18.3001C5.35476 18.1126 5.2494 17.8582 5.2494 17.593C5.2494 17.3278 5.35476 17.0734 5.54229 16.8859C5.72983 16.6984 5.98418 16.593 6.2494 16.593H9.2494V14.524C8.06829 14.3575 6.94723 13.8995 5.98737 13.1914C5.02751 12.4833 4.25908 11.5474 3.7514 10.468C3.0113 10.2796 2.33956 9.88574 1.8137 9.33192C1.28783 8.7781 0.929274 8.08688 0.7794 7.33802L0.5784 6.33202C0.51198 5.99984 0.520085 5.65706 0.60213 5.32839C0.684174 4.99972 0.838115 4.69335 1.05286 4.43135C1.2676 4.16936 1.53779 3.95827 1.84396 3.8133C2.15013 3.66834 2.48465 3.5931 2.8234 3.59302H3.4914L3.6474 2.34502C3.70786 1.86122 3.94296 1.41617 4.3085 1.09354C4.67404 0.770907 5.14484 0.592911 5.6324 0.593018H14.8664ZM14.8664 2.59302H5.6324L5.1094 6.77102C5.0183 7.49984 5.08323 8.2397 5.29989 8.9415C5.51655 9.64331 5.87998 10.291 6.36607 10.8417C6.85216 11.3923 7.44979 11.8332 8.1193 12.1353C8.78882 12.4373 9.51491 12.5935 10.2494 12.5935C10.9839 12.5935 11.71 12.4373 12.3795 12.1353C13.049 11.8332 13.6466 11.3923 14.1327 10.8417C14.6188 10.291 14.9822 9.64331 15.1989 8.9415C15.4156 8.2397 15.4805 7.49984 15.3894 6.77102L14.8664 2.59302ZM17.6764 5.59302H17.2564L17.3734 6.52302C17.4234 6.92902 17.4404 7.33102 17.4234 7.72602C17.5534 7.54302 17.6534 7.33802 17.7174 7.11602L17.7594 6.94602L17.9594 5.94002C17.9744 5.86626 17.9602 5.78956 17.9197 5.72611C17.8792 5.66267 17.8156 5.61745 17.7424 5.60002L17.6764 5.59302ZM3.2404 5.59302H2.8224C2.77943 5.59292 2.73697 5.60237 2.6981 5.6207C2.65923 5.63902 2.62492 5.66575 2.59764 5.69896C2.57037 5.73216 2.55081 5.77102 2.5404 5.81271C2.52998 5.8544 2.52895 5.89788 2.5374 5.94002L2.7384 6.94502C2.7964 7.23402 2.9124 7.49802 3.0744 7.72502C3.0574 7.33102 3.0744 6.92902 3.1244 6.52302L3.2404 5.59302Z" fill="black"/>
</svg>
