<svg width="20" height="20" viewBox="0 0 20 20" fill="none" xmlns="http://www.w3.org/2000/svg">
<path d="M3.90563 0.752502C3.28875 0.397502 2.5 0.837502 2.5 1.56313L2.50625 14.5631C2.50625 15.0106 2.74375 15.4225 3.13 15.6475L3.13313 15.6488L9.30812 19.1863L9.31188 19.1888C9.74313 19.4325 10.2725 19.4363 10.7056 19.1856H10.7069L16.8731 15.6488L16.8763 15.6469C17.0661 15.5368 17.2237 15.3787 17.3332 15.1885C17.4427 14.9983 17.5002 14.7826 17.5 14.5631V1.5625C17.5 0.837502 16.7112 0.396877 16.0944 0.751877L10 4.2725L3.90625 0.753127L3.90563 0.752502ZM3.75625 14.5625L3.75 2.10625L10 5.71625L10.0063 18.1225C9.97839 18.1219 9.95111 18.1144 9.92688 18.1006L9.92562 18.1L3.75688 14.5663L3.75625 14.5625Z" fill="black"/>
</svg>
